<?xml version="1.0" encoding="utf-8"?>
<!-- Generator: Adobe Illustrator 25.2.3, SVG Export Plug-In . SVG Version: 6.00 Build 0)  -->
<svg version="1.1" id="Layer_1" xmlns="http://www.w3.org/2000/svg" xmlns:xlink="http://www.w3.org/1999/xlink" x="0px" y="0px"
	 viewBox="0 0 135 40" style="enable-background:new 0 0 135 40;" xml:space="preserve">
<style type="text/css">
	.st0{fill:#FFFFFF;}
	.st1{fill:#A6A6A6;}
</style>
<g>
	<path d="M134,35.3c0,2.1-1.7,3.8-3.8,3.8H4.7c-2.1,0-3.8-1.7-3.8-3.8V4.7c0-2.1,1.7-3.8,3.8-3.8h125.5c2.1,0,3.8,1.7,3.8,3.8V35.3z
		"/>
	<path class="st0" d="M30.1,19.8c0-3.2,2.6-4.8,2.8-4.9c-1.5-2.2-3.9-2.5-4.7-2.5c-2-0.2-3.9,1.2-4.9,1.2s-2.6-1.2-4.2-1.1
		c-2.1,0-4.1,1.3-5.2,3.2c-2.3,3.9-0.6,9.7,1.6,12.9c1.1,1.5,2.4,3.3,4,3.2c1.6-0.1,2.2-1,4.2-1c1.9,0,2.5,1,4.2,1
		c1.8,0,2.9-1.6,3.9-3.1c1.2-1.8,1.8-3.5,1.8-3.6C33.5,24.9,30.1,23.6,30.1,19.8L30.1,19.8z M26.9,10.3c0.9-1.1,1.5-2.6,1.3-4.1
		c-1.3,0.1-2.8,0.9-3.8,1.9c-0.8,0.9-1.5,2.5-1.3,3.9C24.6,12.2,26,11.4,26.9,10.3L26.9,10.3z M53.6,31.5h-2.3l-1.2-3.9h-4.3
		l-1.2,3.9h-2.2l4.3-13.3h2.6L53.6,31.5L53.6,31.5z M49.7,26l-1.1-3.5c-0.1-0.4-0.3-1.2-0.7-2.5l0,0c-0.1,0.6-0.3,1.4-0.6,2.5
		L46.2,26H49.7L49.7,26z M64.7,26.6c0,1.6-0.4,2.9-1.3,3.9c-0.8,0.8-1.8,1.3-2.9,1.3c-1.3,0-2.2-0.5-2.7-1.4l0,0v5h-2.1V25.1
		c0-1,0-2.1-0.1-3.2h1.9l0.1,1.5l0,0c0.7-1.1,1.8-1.7,3.2-1.7c1.1,0,2.1,0.5,2.8,1.4C64.3,24,64.6,25.2,64.7,26.6L64.7,26.6z
		 M62.5,26.7c0-0.9-0.2-1.7-0.6-2.3c-0.5-0.6-1.1-1-1.9-1c-0.5,0-1,0.2-1.4,0.5s-0.7,0.8-0.8,1.4c-0.1,0.3-0.1,0.5-0.1,0.6v1.6
		c0,0.7,0.2,1.3,0.7,1.8c0.4,0.5,1,0.7,1.7,0.7c0.8,0,1.4-0.3,1.9-0.9S62.5,27.7,62.5,26.7L62.5,26.7z M75.7,26.6
		c0,1.6-0.4,2.9-1.3,3.9c-0.8,0.8-1.8,1.3-2.9,1.3c-1.3,0-2.2-0.5-2.7-1.4l0,0v5h-2.1V25.1c0-1,0-2.1-0.1-3.2h1.9l0.1,1.5l0,0
		c0.7-1.1,1.8-1.7,3.2-1.7c1.1,0,2.1,0.5,2.8,1.4C75.3,24,75.7,25.2,75.7,26.6L75.7,26.6z M73.5,26.7c0-0.9-0.2-1.7-0.6-2.3
		c-0.5-0.6-1.1-1-1.9-1c-0.5,0-1,0.2-1.4,0.5c-0.4,0.4-0.7,0.8-0.8,1.4c-0.1,0.3-0.1,0.5-0.1,0.6v1.6c0,0.7,0.2,1.3,0.6,1.8
		s1,0.7,1.7,0.7c0.8,0,1.4-0.3,1.9-0.9C73.3,28.5,73.5,27.7,73.5,26.7L73.5,26.7z M88,27.8c0,1.1-0.4,2-1.2,2.8
		c-0.9,0.8-2.1,1.2-3.6,1.2c-1.4,0-2.6-0.3-3.4-0.8l0.5-1.8c0.9,0.6,2,0.8,3.1,0.8c0.8,0,1.4-0.2,1.9-0.5c0.4-0.4,0.7-0.9,0.7-1.5
		c0-0.5-0.2-1-0.6-1.4s-1-0.7-1.8-1c-2.3-0.9-3.5-2.1-3.5-3.8c0-1.1,0.4-2,1.2-2.7c0.8-0.7,1.9-1,3.3-1c1.2,0,2.2,0.2,3,0.6L87,20.4
		c-0.8-0.4-1.6-0.6-2.6-0.6c-0.8,0-1.3,0.2-1.8,0.5c-0.4,0.3-0.5,0.7-0.5,1.2s0.2,1,0.6,1.3s1,0.7,1.9,1c1.2,0.5,2,1,2.5,1.6
		C87.8,26.1,88,26.9,88,27.8L88,27.8z M95.1,23.5h-2.4v4.7c0,1.2,0.4,1.8,1.2,1.8c0.4,0,0.7,0,0.9-0.1l0.1,1.6
		c-0.4,0.2-1,0.2-1.7,0.2c-0.8,0-1.5-0.3-2-0.8s-0.7-1.4-0.7-2.6v-4.8h-1.4v-1.6h1.4v-1.8l2.1-0.6v2.4h2.3L95.1,23.5L95.1,23.5z
		 M105.7,26.6c0,1.5-0.4,2.7-1.3,3.6c-0.9,1-2.1,1.5-3.5,1.5s-2.5-0.5-3.3-1.4s-1.3-2.1-1.3-3.5c0-1.5,0.4-2.7,1.3-3.7
		c0.8-0.9,2-1.4,3.5-1.4c1.4,0,2.5,0.5,3.4,1.4C105.3,24,105.7,25.2,105.7,26.6L105.7,26.6z M103.5,26.7c0-0.9-0.2-1.6-0.6-2.3
		c-0.4-0.8-1.1-1.1-1.9-1.1c-0.9,0-1.5,0.4-2,1.1c-0.4,0.6-0.6,1.4-0.6,2.3s0.2,1.6,0.6,2.3c0.5,0.8,1.1,1.2,1.9,1.2
		s1.5-0.4,1.9-1.2C103.3,28.4,103.5,27.6,103.5,26.7z M112.6,23.8c-0.2,0-0.4-0.1-0.7-0.1c-0.8,0-1.3,0.3-1.7,0.9
		c-0.3,0.5-0.5,1.1-0.5,1.9v5h-2.1v-6.6c0-1.1,0-2.1-0.1-3h1.8l0.1,1.9h0.1c0.2-0.6,0.6-1.1,1.1-1.5c0.5-0.3,1-0.5,1.5-0.5
		c0.2,0,0.4,0,0.5,0L112.6,23.8L112.6,23.8z M122.2,26.2c0,0.4,0,0.7-0.1,1h-6.4c0,1,0.3,1.7,0.9,2.2c0.6,0.4,1.2,0.7,2.1,0.7
		s1.8-0.1,2.6-0.5l0.3,1.5c-0.9,0.4-2,0.6-3.2,0.6c-1.5,0-2.7-0.4-3.5-1.3s-1.3-2.1-1.3-3.5c0-1.5,0.4-2.7,1.2-3.6
		c0.8-1,2-1.5,3.4-1.5s2.4,0.5,3.1,1.5C121.9,24,122.2,25,122.2,26.2L122.2,26.2z M120.1,25.7c0-0.6-0.1-1.2-0.4-1.6
		c-0.4-0.6-0.9-0.9-1.7-0.9c-0.7,0-1.3,0.3-1.7,0.9c-0.4,0.5-0.6,1-0.6,1.7C115.7,25.7,120.1,25.7,120.1,25.7z M49,10
		c0,1.2-0.3,2.1-1.1,2.7c-0.7,0.6-1.6,0.8-2.8,0.8c-0.6,0-1.1,0-1.5-0.1V7c0.5-0.1,1.2-0.1,1.8-0.1c1.2,0,2,0.2,2.6,0.7
		C48.7,8.2,49,9,49,10L49,10z M48,10c0-0.8-0.2-1.4-0.6-1.8c-0.4-0.4-1-0.6-1.8-0.6c-0.3,0-0.6,0-0.8,0.1v4.9c0.1,0,0.4,0,0.7,0
		c0.8,0,1.4-0.2,1.9-0.7C47.7,11.5,47.9,10.9,48,10L48,10z M54.9,11c0,0.7-0.2,1.3-0.6,1.8c-0.5,0.5-1,0.7-1.7,0.7s-1.2-0.2-1.7-0.7
		c-0.4-0.4-0.6-1-0.6-1.7s0.2-1.3,0.6-1.8c0.4-0.5,1-0.7,1.7-0.7s1.3,0.2,1.7,0.7C54.7,9.8,54.9,10.3,54.9,11L54.9,11z M53.8,11.1
		c0-0.4-0.1-0.8-0.3-1.1c-0.2-0.4-0.5-0.6-0.9-0.6s-0.7,0.2-1,0.6c-0.2,0.3-0.3,0.7-0.3,1.1c0,0.4,0.1,0.8,0.3,1.1
		c0.2,0.4,0.5,0.6,1,0.6c0.4,0,0.7-0.2,0.9-0.6C53.7,11.9,53.8,11.5,53.8,11.1L53.8,11.1z M62.8,8.7l-1.5,4.7h-1l-0.6-2
		c-0.2-0.5-0.3-1-0.4-1.5c-0.1,0.5-0.2,1-0.4,1.5l-0.6,2h-1l-1.4-4.7H57l0.5,2.2c0.1,0.5,0.2,1,0.3,1.5c0.1-0.4,0.2-0.9,0.4-1.5
		l0.7-2.2h0.9l0.6,2.2c0.2,0.5,0.3,1.1,0.4,1.6l0,0c0.1-0.5,0.2-1,0.3-1.6l0.6-2.2H62.8L62.8,8.7z M68.2,13.4h-1.1v-2.7
		c0-0.8-0.3-1.2-0.9-1.2c-0.3,0-0.6,0.1-0.8,0.3c-0.2,0.2-0.3,0.5-0.3,0.8v2.8h-1V10c0-0.4,0-0.9,0-1.4H65v0.7l0,0
		c0.1-0.2,0.3-0.4,0.5-0.6c0.3-0.2,0.6-0.3,1-0.3s0.8,0.1,1.1,0.4c0.4,0.4,0.5,0.9,0.5,1.6L68.2,13.4L68.2,13.4z M71.1,13.4H70V6.6
		h1.1V13.4z M77.3,11c0,0.7-0.2,1.3-0.6,1.8s-1,0.7-1.7,0.7s-1.2-0.2-1.6-0.7c-0.4-0.4-0.6-1-0.6-1.7s0.2-1.3,0.6-1.8s1-0.7,1.7-0.7
		s1.2,0.2,1.7,0.7C77.1,9.8,77.3,10.3,77.3,11L77.3,11z M76.2,11.1c0-0.4-0.1-0.8-0.3-1.1c-0.2-0.4-0.5-0.6-0.9-0.6s-0.7,0.2-1,0.6
		c-0.2,0.3-0.3,0.7-0.3,1.1c0,0.4,0.1,0.8,0.3,1.1c0.2,0.4,0.5,0.6,0.9,0.6s0.7-0.2,0.9-0.6C76.1,11.9,76.2,11.5,76.2,11.1
		L76.2,11.1z M82.3,13.4h-0.9l-0.1-0.5l0,0c-0.3,0.4-0.8,0.6-1.4,0.6c-0.4,0-0.8-0.1-1.1-0.4c-0.2-0.2-0.4-0.6-0.4-0.9
		c0-0.6,0.2-1,0.7-1.3s1.2-0.4,2-0.4v-0.1c0-0.6-0.3-0.9-1-0.9c-0.5,0-0.9,0.1-1.2,0.4L78.8,9c0.4-0.3,1-0.4,1.6-0.4
		c1.2,0,1.9,0.6,1.9,1.9v1.7C82.3,12.8,82.3,13.2,82.3,13.4L82.3,13.4z M81.2,11.8v-0.7c-1.1,0-1.7,0.3-1.7,0.9
		c0,0.2,0.1,0.4,0.2,0.6c0.1,0.1,0.3,0.2,0.5,0.2s0.4-0.1,0.6-0.2c0.2-0.1,0.3-0.3,0.4-0.6V11.8L81.2,11.8z M88.3,13.4h-0.9v-0.8
		l0,0c-0.3,0.6-0.8,0.9-1.5,0.9c-0.6,0-1-0.2-1.4-0.7c-0.4-0.4-0.6-1-0.6-1.7c0-0.8,0.2-1.4,0.6-1.9c0.4-0.4,0.9-0.7,1.4-0.7
		c0.6,0,1.1,0.2,1.3,0.6l0,0V6.6h1.1v5.6C88.3,12.6,88.3,13,88.3,13.4L88.3,13.4z M87.2,11.4v-0.8c0-0.1,0-0.2,0-0.3
		c-0.1-0.2-0.2-0.5-0.4-0.6c-0.2-0.2-0.4-0.3-0.7-0.3c-0.4,0-0.7,0.1-0.9,0.5c-0.2,0.3-0.3,0.7-0.3,1.2s0.1,0.8,0.3,1.1
		c0.2,0.3,0.5,0.5,0.9,0.5c0.3,0,0.6-0.1,0.8-0.4C87.1,12.1,87.2,11.8,87.2,11.4L87.2,11.4z M97.2,11c0,0.7-0.2,1.3-0.6,1.8
		s-1,0.7-1.7,0.7s-1.2-0.2-1.7-0.7c-0.4-0.4-0.6-1-0.6-1.7s0.2-1.3,0.6-1.8s1-0.7,1.7-0.7s1.3,0.2,1.7,0.7C97,9.8,97.2,10.3,97.2,11
		L97.2,11z M96.2,11.1c0-0.4-0.1-0.8-0.3-1.1c-0.2-0.4-0.5-0.6-0.9-0.6s-0.7,0.2-1,0.6c-0.2,0.3-0.3,0.7-0.3,1.1
		c0,0.4,0.1,0.8,0.3,1.1c0.2,0.4,0.5,0.6,0.9,0.6s0.7-0.2,0.9-0.6C96.1,11.9,96.2,11.5,96.2,11.1L96.2,11.1z M102.9,13.4h-1v-2.7
		c0-0.8-0.3-1.2-0.9-1.2c-0.3,0-0.6,0.1-0.8,0.3c-0.2,0.2-0.3,0.5-0.3,0.8v2.8h-1V10c0-0.4,0-0.9-0.1-1.4h0.9l0.1,0.7l0,0
		c0.1-0.2,0.3-0.4,0.5-0.6c0.3-0.2,0.6-0.3,0.9-0.3c0.4,0,0.8,0.1,1.1,0.4c0.4,0.4,0.5,0.9,0.5,1.6L102.9,13.4L102.9,13.4z
		 M109.9,9.5h-1.2v2.3c0,0.6,0.2,0.9,0.6,0.9c0.2,0,0.4,0,0.5-0.1v0.8c-0.2,0.1-0.5,0.1-0.8,0.1c-0.4,0-0.7-0.1-1-0.4
		c-0.2-0.2-0.3-0.7-0.3-1.3V9.5H107V8.7h0.7V7.9l1-0.3v1.1h1.2L109.9,9.5L109.9,9.5z M115.5,13.4h-1.1v-2.7c0-0.8-0.3-1.3-0.9-1.3
		c-0.5,0-0.8,0.2-1,0.7c-0.1,0.1-0.1,0.2-0.1,0.4v2.8h-1.1V6.6h1v2.8l0,0c0.3-0.5,0.8-0.8,1.4-0.8c0.4,0,0.8,0.1,1.1,0.4
		c0.3,0.4,0.5,0.9,0.5,1.6L115.5,13.4L115.5,13.4z M121.2,10.8c0,0.2,0,0.4,0,0.5H118c0,0.5,0.2,0.8,0.4,1.1c0.3,0.2,0.6,0.3,1,0.3
		c0.5,0,0.9-0.1,1.3-0.2l0.2,0.7c-0.4,0.2-1,0.3-1.6,0.3c-0.7,0-1.3-0.2-1.7-0.6c-0.4-0.4-0.6-1-0.6-1.7s0.2-1.3,0.6-1.8
		s0.9-0.8,1.7-0.8c0.7,0,1.2,0.3,1.5,0.8C121.1,9.8,121.2,10.3,121.2,10.8z M120.2,10.6c0-0.3-0.1-0.6-0.2-0.8
		c-0.2-0.3-0.4-0.4-0.8-0.4c-0.3,0-0.6,0.1-0.8,0.4c-0.2,0.2-0.3,0.5-0.3,0.8H120.2L120.2,10.6z"/>
	<path class="st1" d="M130.2,39c2.1,0,3.8-1.7,3.8-3.7V4.7c0-2-1.7-3.7-3.8-3.7H4.7C2.7,1,1,2.7,1,4.7l0,0v30.5c0,2,1.7,3.7,3.7,3.7
		L130.2,39L130.2,39z M130.2,40H4.7C2.1,40,0,37.9,0,35.3V4.7C0,2.1,2.1,0,4.7,0h125.5c2.6,0,4.8,2.1,4.8,4.7v30.5
		C135,37.9,132.8,40,130.2,40z"/>
</g>
</svg>
