<?xml version="1.0" encoding="utf-8"?>
<!-- Generator: Adobe Illustrator 25.2.3, SVG Export Plug-In . SVG Version: 6.00 Build 0)  -->
<svg version="1.1" id="Layer_1" xmlns="http://www.w3.org/2000/svg" xmlns:xlink="http://www.w3.org/1999/xlink" x="0px" y="0px"
	 viewBox="0 0 135 40" style="enable-background:new 0 0 135 40;" xml:space="preserve">
<style type="text/css">
	.st0{fill:#FFFFFF;stroke:#FFFFFF;stroke-width:0.2;}
	.st1{fill:#FFFFFF;}
	.st2{fill:url(#SVGID_1_);}
	.st3{fill:url(#SVGID_2_);}
	.st4{fill:url(#SVGID_3_);}
	.st5{fill:#00F076;}
	.st6{fill:#A6A6A6;}
</style>
<g>
	<g>
		<g transform="translate(135)">
			<path d="M-130,0H-5c2.8,0,5,2.2,5,5v30c0,2.8-2.2,5-5,5h-125c-2.8,0-5-2.2-5-5V5C-135,2.3-132.8,0-130,0z"/>
			<path class="st0" d="M-87.6,10.3c0,0.7-0.2,1.5-0.8,2c-0.6,0.6-1.4,0.9-2.2,0.9c-1.3,0-2.4-0.8-2.9-2s-0.2-2.5,0.7-3.4
				c0.6-0.6,1.4-0.9,2.2-0.9c0.4,0,0.8,0.1,1.2,0.2c0.4,0.2,0.7,0.4,0.9,0.7L-89,8.3c-0.4-0.5-1-0.7-1.6-0.7s-1.2,0.2-1.7,0.7
				S-93,9.4-93,10c0,0.9,0.5,1.8,1.4,2.2c0.9,0.4,1.9,0.2,2.6-0.5c0.3-0.3,0.5-0.8,0.5-1.2h-2.2V9.8h2.9
				C-87.6,10-87.6,10.2-87.6,10.3L-87.6,10.3z M-83,7.8h-2.7v1.9h2.5v0.7h-2.5v1.9h2.7V13h-3.5V7h3.5V7.8z M-79.7,13h-0.8V7.7h-1.7
				V7h4.2v0.7h-1.7V13z M-75.1,13V7h0.8v6H-75.1z M-70.9,13h-0.8V7.7h-1.7V7h4.1v0.7H-71L-70.9,13L-70.9,13z M-61.4,12.3
				c-1.2,1.2-3.2,1.2-4.4,0c-1.2-1.3-1.2-3.2,0-4.4c0.6-0.6,1.4-0.9,2.2-0.9s1.6,0.3,2.2,0.9C-60.2,9-60.2,11-61.4,12.3z
				 M-65.2,11.8c0.9,0.9,2.4,0.9,3.3,0c0.9-1,0.9-2.5,0-3.4s-2.4-0.9-3.3,0S-66.1,10.8-65.2,11.8z M-59.4,13V7h0.9l2.9,4.7V7h0.8v6
				h-0.8l-3-4.9V13H-59.4z"/>
			<path class="st1" d="M-66.9,21.8c-2.3,0-4.2,1.9-4.2,4.3s1.9,4.3,4.3,4.2c2.3,0,4.2-1.9,4.2-4.2c0-1.1-0.4-2.2-1.2-3
				C-64.6,22.2-65.7,21.8-66.9,21.8L-66.9,21.8z M-66.9,28.6c-1.1,0.1-2.1-0.5-2.5-1.5c-0.5-1-0.3-2.1,0.4-2.9
				c0.7-0.8,1.8-1,2.8-0.7c1,0.4,1.6,1.3,1.6,2.4c0,0.7-0.2,1.3-0.7,1.8C-65.6,28.3-66.2,28.6-66.9,28.6z M-76.2,21.8
				c-2.4,0-4.2,1.9-4.2,4.3c0,2.3,1.9,4.2,4.2,4.2c2.3,0,4.2-1.9,4.2-4.2c0-1.1-0.4-2.2-1.2-3C-74,22.2-75.1,21.8-76.2,21.8
				L-76.2,21.8z M-76.2,28.6c-1.1,0.1-2.1-0.5-2.5-1.4c-0.5-1-0.3-2.1,0.4-2.9c0.7-0.8,1.8-1,2.8-0.7c1,0.4,1.6,1.3,1.6,2.4
				c0,0.7-0.2,1.3-0.7,1.8C-74.9,28.3-75.5,28.6-76.2,28.6L-76.2,28.6z M-87.3,23.1v1.8h4.3c-0.1,0.9-0.4,1.7-1,2.3
				c-0.9,0.9-2.1,1.4-3.3,1.3c-2.7-0.1-4.8-2.2-4.7-4.9c0.1-2.6,2.1-4.6,4.7-4.7c1.2,0,2.4,0.4,3.3,1.3l1.3-1.3
				c-1.2-1.2-2.8-1.9-4.5-1.9c-2.4-0.1-4.7,1.1-5.9,3.2c-1.2,2.1-1.2,4.7,0,6.8c1.2,2.1,3.5,3.3,5.9,3.2c1.7,0.1,3.4-0.6,4.6-1.8
				c1.1-1.1,1.6-2.7,1.6-4.2c0-0.4,0-0.8-0.1-1.1L-87.3,23.1L-87.3,23.1z M-42,24.5c-0.5-1.6-2-2.7-3.6-2.7c-1.1,0-2.2,0.4-2.9,1.2
				c-0.8,0.8-1.2,1.9-1.1,3c0,1.1,0.4,2.2,1.2,3s1.9,1.2,3,1.2c1.4,0,2.8-0.7,3.6-1.9l-1.4-1c-0.4,0.7-1.2,1.2-2.1,1.2
				c-0.9,0-1.7-0.5-2.1-1.3l5.7-2.3L-42,24.5L-42,24.5z M-47.8,25.9c0-0.6,0.2-1.2,0.6-1.7c0.4-0.5,1-0.8,1.6-0.8
				c0.7,0,1.3,0.3,1.6,0.9L-47.8,25.9L-47.8,25.9z M-52.3,30h1.9V17.5h-1.9V30L-52.3,30z M-55.4,22.7L-55.4,22.7
				c-0.6-0.6-1.4-1-2.3-1c-2.3,0.1-4.1,2-4.1,4.2c0,2.3,1.8,4.2,4.1,4.3c0.9,0,1.7-0.3,2.2-1h0.1v0.6c0,1.6-0.9,2.5-2.3,2.5
				c-1,0-1.8-0.6-2.2-1.5l-1.6,0.7c0.6,1.5,2.1,2.5,3.8,2.5c2.2,0,4-1.3,4-4.4V22h-1.7V22.7L-55.4,22.7z M-57.6,28.6
				c-1.3-0.1-2.4-1.2-2.4-2.6c0-1.3,1-2.5,2.4-2.6c0.7,0,1.2,0.3,1.7,0.8c0.4,0.5,0.7,1.1,0.6,1.8c0.1,0.7-0.2,1.3-0.6,1.8
				C-56.3,28.3-56.9,28.6-57.6,28.6z M-33.2,17.5h-4.5V30h1.9v-4.7h2.6c1.4,0.1,2.8-0.6,3.6-1.9c0.8-1.2,0.8-2.8,0-4
				C-30.3,18.1-31.7,17.4-33.2,17.5L-33.2,17.5z M-33.2,23.5h-2.6v-4.3h2.7c1.2,0,2.2,1,2.2,2.2C-31,22.6-32,23.6-33.2,23.5
				L-33.2,23.5L-33.2,23.5z M-21.7,21.7c-1.4-0.1-2.7,0.7-3.3,1.9l1.7,0.7c0.3-0.6,1-1,1.7-0.9c0.5-0.1,1,0.1,1.3,0.4
				c0.4,0.3,0.6,0.7,0.7,1.2v0.1c-0.6-0.3-1.3-0.5-1.9-0.5c-1.8,0-3.6,1-3.6,2.8c0,0.8,0.4,1.5,1,2s1.3,0.8,2.1,0.7
				c1,0.1,1.9-0.4,2.4-1.2h0.1v1h1.8v-4.8C-17.8,23-19.5,21.8-21.7,21.7L-21.7,21.7L-21.7,21.7z M-21.9,28.6c-0.6,0-1.4-0.3-1.4-1.1
				c0-1,1.1-1.3,2-1.3c0.6,0,1.2,0.1,1.7,0.4C-19.8,27.7-20.7,28.6-21.9,28.6L-21.9,28.6L-21.9,28.6z M-11.2,22l-2.1,5.4h-0.1
				l-2.2-5.4h-2l3.3,7.6l-1.9,4.2h1.9L-9.2,22H-11.2L-11.2,22z M-28.1,30h1.9V17.5h-1.9V30L-28.1,30z"/>
			
				<linearGradient id="SVGID_1_" gradientUnits="userSpaceOnUse" x1="-2558.6335" y1="-718.2023" x2="-2558.6335" y2="-717.2023" gradientTransform="matrix(12.9119 0 0 24.97 32918.3047 17941.0449)">
				<stop  offset="3.938000e-02" style="stop-color:#00C3FF"/>
				<stop  offset="0.9774" style="stop-color:#00E1FF"/>
			</linearGradient>
			<path class="st2" d="M-124.6,7.6c-0.3,0.4-0.5,0.9-0.4,1.5v22c0,0.5,0.1,1,0.5,1.4l0.1,0.1l12.4-12.3V20L-124.6,7.6L-124.6,7.6
				L-124.6,7.6z"/>
			
				<linearGradient id="SVGID_2_" gradientUnits="userSpaceOnUse" x1="-2509.7996" y1="-601.5768" x2="-2512.1748" y2="-601.5768" gradientTransform="matrix(10.18 0 0 8.53 25445.8496 5151.5)">
				<stop  offset="0" style="stop-color:#FDDE31"/>
				<stop  offset="0.4" style="stop-color:#FABC31"/>
				<stop  offset="0.77" style="stop-color:#F8A431"/>
				<stop  offset="1" style="stop-color:#F79B31"/>
			</linearGradient>
			<path class="st3" d="M-108,24.3l-4.1-4.1v-0.3l4.1-4.1h0.1l4.9,2.8c1.4,0.8,1.4,2.1,0,2.9L-108,24.3L-108,24.3z"/>
			
				<linearGradient id="SVGID_3_" gradientUnits="userSpaceOnUse" x1="-2599.127" y1="-661.2455" x2="-2600.4895" y2="-659.4766" gradientTransform="matrix(16.68 0 0 12.8556 43243.2539 8523.0381)">
				<stop  offset="0" style="stop-color:#FF3A44"/>
				<stop  offset="1" style="stop-color:#C4206D"/>
			</linearGradient>
			<path class="st4" d="M-107.9,24.3l-4.2-4.2l-12.5,12.4c0.6,0.5,1.5,0.5,2.1,0.1L-107.9,24.3"/>
			<path class="st5" d="M-107.9,15.8l-14.6-8.3c-0.6-0.5-1.5-0.4-2.1,0.1l12.5,12.5C-112.1,20-107.9,15.8-107.9,15.8z"/>
		</g>
	</g>
	<path class="st6" d="M130.2,39c2.1,0,3.8-1.7,3.8-3.7V4.8c0-2-1.7-3.7-3.8-3.7H4.7C2.7,1,1,2.7,1,4.8v30.5C1,37.4,2.7,39,4.7,39
		H130.2z M130.2,40H4.7C2.1,40,0,37.9,0,35.3V4.8C0,2.2,2.1,0,4.7,0h125.5c2.6,0,4.8,2.1,4.8,4.7v30.5C135,37.9,132.8,40,130.2,40z"
		/>
</g>
</svg>
